<svg width="235" height="305" viewBox="0 0 235 305" fill="none" xmlns="http://www.w3.org/2000/svg">
<path d="M21.9298 0.500005C13.4298 0.500005 8.43073 8.99999 6.92978 15.5C5.42883 22 7.42883 62.5 7.42883 70.5C7.42883 78.5 19.9288 86.5 32.4288 81.5C44.9288 76.5 59.4288 70.5 75.9288 68C92.4288 65.5 113.429 64.881 118.429 66.381C123.429 67.881 125.929 70.881 122.929 78.381C119.929 85.881 16.9288 237.5 16.9288 237.5C9.92883 246.5 1.92876 258 0.928132 267.5C-0.0724981 277 0.928155 281.5 1.42881 284C1.92946 286.5 4.92883 299.5 22.9288 302.5C40.9288 305.5 215.43 303.5 215.43 303.5C223.93 302.5 225.93 298 227.43 291C228.93 284 227.43 248.5 227.43 240C227.43 231.5 224.93 228.5 219.43 226C213.93 223.5 207.43 225.5 203.43 227C199.43 228.5 188.93 233.5 176.93 237.5C164.93 241.5 161.93 242.5 150.93 244C139.93 245.5 121.431 246 114.43 244C107.429 242 107.431 237.5 108.93 232C110.429 226.5 131.429 197 131.429 197L155.43 162.5L177.93 129.5L206.43 85.5C213.264 75.1511 216.93 69 223.93 59C230.93 49 234.43 44.5 234.43 32.5V23C234.43 7.50002 223.43 0.500017 212.43 0.500005H199.93H171.93H148.43H120.43H95.4298H62.9298H42.9298H21.9298Z" fill="black" stroke="black"/>
</svg>
